<svg width="8" height="5" viewBox="0 0 8 5" fill="black" xmlns="http://www.w3.org/2000/svg">
    <path d="M0.000204086 0.60151C0.0702515 0.417839 0.221138 0.299329 0.353291 0.166362C0.573206 -0.055386 0.823258 -0.0551823 1.04399 0.165344C2.01039 1.13134 2.977 2.09734 3.94158 3.06538C3.99147 3.11547 4.01346 3.11017 4.06009 3.06375C5.02486 2.09612 5.99147 1.13012 6.95788 0.164122C7.12893 -0.00692311 7.33357 -0.0502953 7.5148 0.068011C7.68055 0.176136 7.82105 0.320099 7.93223 0.483814C8.03913 0.64142 8.0147 0.835882 7.89313 0.983714C7.87501 1.00571 7.85566 1.02709 7.83551 1.04725C6.6724 2.21056 5.50929 3.37387 4.34598 4.53698C4.17229 4.71067 3.97009 4.74712 3.78051 4.64062C3.73245 4.61354 3.69295 4.57567 3.65426 4.53698C2.49095 3.37387 1.32825 2.21035 0.163919 1.04806C0.0849123 0.969257 0.0321732 0.87844 4.76837e-07 0.773369C0.000204086 0.716151 0.000204086 0.658932 0.000204086 0.60151Z" fill="#000"/>
</svg>
